<?xml version="1.0" encoding="utf-8"?>
<!-- Generator: Adobe Illustrator 25.3.1, SVG Export Plug-In . SVG Version: 6.00 Build 0)  -->
<svg version="1.1" id="Layer_1" xmlns="http://www.w3.org/2000/svg" xmlns:xlink="http://www.w3.org/1999/xlink" x="0px" y="0px"
	 viewBox="0 0 161.2 18.4" style="enable-background:new 0 0 161.2 18.4;" xml:space="preserve">
<style type="text/css">
	.st0{fill:#0E0D0D;}
</style>
<path class="st0" d="M11.1,10.3h2.1c-0.1,0.8-0.4,1.5-0.9,2.1c-0.5,0.6-1.2,1.1-2.2,1.5c-0.9,0.4-2,0.5-3.3,0.5
	c-2.2,0-3.9-0.5-5.1-1.5C0.6,12,0,10.6,0,8.9s0.6-3.1,1.7-4.1c1.1-1,2.8-1.5,5.1-1.5c1.3,0,2.4,0.2,3.3,0.5c0.9,0.4,1.6,0.8,2.1,1.5
	c0.5,0.6,0.8,1.3,0.9,2.1h-2.1C11,6.7,10.5,6.1,9.8,5.7C9,5.2,8,5,6.8,5C3.6,5,2.1,6.3,2.1,8.9c0,1.3,0.4,2.3,1.2,2.9s2,0.9,3.5,0.9
	c1.3,0,2.2-0.2,3-0.6C10.5,11.7,11,11.1,11.1,10.3z M27.8,4.8c1.1,1,1.7,2.4,1.7,4.1S28.9,12,27.8,13c-1.1,1-2.8,1.5-5.1,1.5
	c-2.3,0-4-0.5-5.1-1.5c-1.1-1-1.7-2.4-1.7-4.1s0.6-3.1,1.7-4.1c1.1-1,2.8-1.5,5.1-1.5C24.9,3.3,26.6,3.8,27.8,4.8z M27.4,8.9
	c0-2.6-1.6-3.9-4.7-3.9C21.1,5,20,5.3,19.2,6c-0.8,0.6-1.2,1.6-1.2,2.9c0,2.6,1.6,3.9,4.7,3.9C25.8,12.8,27.4,11.5,27.4,8.9z
	 M43.5,12.4l-8.5-8.7h-2.8v10.6h1.9V5.4l8.5,8.7h2.8V3.6h-1.9V12.4z M61.2,3.6H48.3v1.7h5.5v8.9h1.9V5.3h5.5V3.6z M68.8,3.6L75,14.2
	h-2.2l-1.3-2.3h-7.7l-1.3,2.3h-2.2l6.1-10.6H68.8z M70.5,10.2l-2.9-5l-2.9,5H70.5z M86.2,12.1c-0.7,0.4-1.7,0.6-3,0.6
	c-1.5,0-2.7-0.3-3.5-0.9s-1.2-1.6-1.2-2.9c0-2.6,1.6-3.9,4.7-3.9c1.3,0,2.3,0.2,3,0.6c0.7,0.4,1.2,1,1.3,1.8h2.1
	c-0.1-0.8-0.4-1.5-0.9-2.1c-0.5-0.6-1.2-1.1-2.1-1.5c-0.9-0.4-2-0.5-3.3-0.5c-2.2,0-3.9,0.5-5.1,1.5c-1.1,1-1.7,2.4-1.7,4.1
	S77,12,78.2,13c1.1,1,2.8,1.5,5.1,1.5c1.3,0,2.4-0.2,3.3-0.5c0.9-0.4,1.6-0.9,2.2-1.5c0.5-0.6,0.8-1.3,0.9-2.1h-2.1
	C87.4,11.1,87,11.7,86.2,12.1z M92,5.3h5.5v8.9h1.9V5.3h5.5V3.6H92V5.3z M143.7,3l-0.9,1.4l6.1,3.9h-5.9L134.7,3l-0.9,1.4l6.1,3.9
	h-23.1v1.7h23.1l-6.1,3.9l0.9,1.4l8.3-5.3h5.9l-6.1,3.9l0.9,1.4l9.6-6.2L143.7,3z"/>
</svg>
