<?xml version="1.0" encoding="UTF-8"?><svg id="Layer_1" xmlns="http://www.w3.org/2000/svg" viewBox="0 0 262.76 4.65"><defs><style>.cls-1{fill:#c48a3d;}</style></defs><path class="cls-1" d="M2.09,2.94c0,.34-.06,.58-.19,.73-.11,.13-.3,.2-.57,.2-.18,0-.35-.03-.48-.09-.14-.06-.24-.13-.31-.2l-.53-.55v1.11l.11,.09c.15,.13,.33,.23,.54,.3,.21,.07,.44,.11,.69,.11,.51,0,.9-.16,1.16-.46,.25-.29,.38-.71,.38-1.25V.04h-.78V2.94Z"/><path class="cls-1" d="M17.63,4.61h4.34v-.78h-3.56c0-.29,0-.65,0-1.09h3.16v-.77h-3.16V.81l3.56,.02V.06h-4.34s0,4.55,0,4.55Z"/><path class="cls-1" d="M40.1,2.81s-.02-.01-.03-.02c.19-.07,.36-.16,.52-.28,.3-.23,.46-.57,.46-1.02,0-.51-.21-.9-.6-1.14-.35-.21-.85-.32-1.51-.32h-2.57V4.61h.79v-1.6s.77,0,.77,0c.45,0,.83,.05,1.15,.14,.3,.09,.56,.24,.77,.44,.22,.2,.4,.49,.56,.84l.08,.18h.9l-.2-.44c-.29-.63-.65-1.09-1.09-1.36Zm-2.94-1.98h1.79c.49,0,.85,.06,1.07,.19,.11,.06,.24,.18,.24,.48,0,.2-.05,.35-.15,.44-.12,.11-.31,.19-.57,.23-.3,.05-.71,.07-1.22,.07h-1.17V.83Z"/><path class="cls-1" d="M55.65,4.61h4.34v-.78h-3.56c0-.29,0-.65,0-1.09h3.16v-.77h-3.16V.81l3.57,.02V.06h-4.34s0,4.55,0,4.55Z"/><path class="cls-1" d="M79.91,.04h-.64l-.09,.16c-.25,.43-.61,1.08-1.12,1.99l-.79,1.41-.8-1.46c-.47-.86-.83-1.51-1.07-1.94l-.09-.16h-.82V4.61h.79v-.31c0-.64,0-1.54,0-2.7l.56,1c.51,.94,.86,1.55,1.02,1.85l.09,.16h.63l.09-.16c.46-.82,.81-1.43,1.04-1.84,.21-.38,.41-.73,.58-1.03v1.4c0,.3,.01,.74,.01,1.32v.31h.79l-.02-4.57h-.16Z"/><polygon class="cls-1" points="96.68 2.07 94.87 .04 93.81 .04 96.28 2.78 96.28 4.61 97.08 4.61 97.08 2.78 99.54 .04 98.48 .04 96.68 2.07"/><path class="cls-1" d="M129.12,4.61h.79v-.31c0-.34,0-.86,0-1.56h3.15v-.78h-3.15V.83h3.6V.04h-4.38V4.61Z"/><path class="cls-1" d="M151.67,.26c-.84-.35-2.14-.35-2.97,0-.44,.18-.78,.45-1.01,.81-.23,.35-.35,.78-.35,1.27s.12,.9,.36,1.25c.24,.35,.58,.62,1.01,.8,.42,.17,.92,.26,1.48,.26s1.07-.09,1.48-.26c.44-.18,.78-.45,1.01-.8,.23-.35,.35-.77,.35-1.25s-.12-.91-.35-1.27c-.23-.35-.57-.62-1.01-.81Zm-1.48,.5c.44,0,.82,.07,1.13,.2,.3,.13,.53,.3,.68,.54,.16,.23,.23,.5,.23,.83s-.08,.6-.23,.83c-.16,.23-.38,.4-.68,.52-.64,.26-1.67,.25-2.29,0-.3-.12-.52-.29-.68-.52-.16-.23-.23-.5-.23-.83s.08-.6,.23-.83c.16-.23,.38-.41,.68-.54,.31-.13,.7-.2,1.14-.2Z"/><path class="cls-1" d="M171.24,2.81s-.02-.01-.03-.02c.19-.07,.36-.16,.52-.28,.3-.23,.46-.57,.46-1.02,0-.51-.21-.9-.6-1.14-.35-.21-.85-.32-1.51-.32h-2.57V4.61h.79v-1.6s.77,0,.77,0c.45,0,.83,.05,1.15,.14,.3,.09,.56,.24,.76,.44,.22,.2,.4,.49,.56,.84l.08,.18h.9l-.2-.44c-.29-.63-.65-1.09-1.09-1.36Zm-2.94-1.98h1.79c.49,0,.85,.06,1.07,.19,.11,.06,.24,.18,.24,.48,0,.2-.05,.35-.15,.44-.12,.11-.31,.19-.57,.23-.3,.05-.71,.07-1.22,.07h-1.17V.83Z"/><path class="cls-1" d="M206.61,1.57c.35-.31,.63-.66,.83-1.04l.23-.45h-.86l-.09,.16c-.27,.48-.7,.89-1.27,1.22-.51,.3-1.2,.46-2.07,.48V.88c0-.13,0-.3,0-.53V.04h-.77V4.61h.79v-.31c0-.52,0-1.05,0-1.61,.65,.01,1.21,.11,1.66,.3,.48,.2,.85,.44,1.09,.7,.24,.26,.39,.49,.45,.7l.07,.23h.84l-.12-.4c-.12-.4-.36-.77-.7-1.1-.33-.32-.75-.58-1.23-.77-.02,0-.05-.02-.07-.03h.02c.46-.19,.88-.44,1.23-.74Z"/><rect class="cls-1" x="221.98" y=".04" width=".78" height="4.57"/><path class="cls-1" d="M242.63,.04h-.78V3.47s-2.18-2.05-2.18-2.05c-.39-.37-.85-.79-1.37-1.29l-.09-.08h-.68V4.61h.79V1.2l2.49,2.33c.3,.28,.65,.61,1.06,.99l.09,.08h.69V.04Z"/><path class="cls-1" d="M259.09,2.07v.77h2.82c-.08,.29-.24,.52-.49,.68-.37,.24-.86,.36-1.47,.36-.44,0-.81-.07-1.12-.21-.3-.13-.52-.31-.67-.55-.15-.24-.23-.51-.23-.83s.08-.58,.23-.8c.16-.22,.39-.4,.7-.52,.53-.21,1.25-.27,2.21-.1,.36,.06,.72,.18,1.07,.34l.44,.2V.54l-.19-.08c-.41-.17-.82-.29-1.23-.36-1.44-.24-2.53-.06-3.23,.47-.53,.4-.8,.98-.8,1.73,0,.48,.11,.91,.34,1.26,.23,.36,.56,.64,.99,.82,.41,.18,.91,.27,1.5,.27,.76,0,1.41-.16,1.91-.49,.54-.34,.84-.89,.9-1.64v-.46h-3.67Z"/></svg>