<?xml version="1.0" encoding="UTF-8"?><svg id="Layer_1" xmlns="http://www.w3.org/2000/svg" xmlns:xlink="http://www.w3.org/1999/xlink" viewBox="0 0 277.21 7.24"><defs><style>.cls-1,.cls-2{fill:none;}.cls-3{clip-path:url(#clippath);}.cls-4{fill:#c48a3d;}.cls-2{stroke:#c48a3d;stroke-miterlimit:10;stroke-width:.5px;}</style><clipPath id="clippath"><rect class="cls-1" x="-53.79" y="451.36" width="378.14" height="318.17" transform="translate(270.57 1220.9) rotate(180)"/></clipPath></defs><g class="cls-3"><g><line class="cls-2" x1="136.25" y1="451.49" x2="136.25" y2="-30.24"/><line class="cls-2" x1="136.25" y1="451.49" x2="111.04" y2="-29.58"/><line class="cls-2" x1="136.25" y1="451.49" x2="85.9" y2="-27.6"/><line class="cls-2" x1="136.25" y1="451.49" x2="60.89" y2="-24.31"/><line class="cls-2" x1="136.25" y1="451.49" x2="36.1" y2="-19.71"/><line class="cls-2" x1="136.25" y1="451.49" x2="11.57" y2="-13.83"/><line class="cls-2" x1="136.25" y1="451.49" x2="-12.61" y2="-6.66"/><line class="cls-2" x1="136.25" y1="451.49" x2="-36.38" y2="1.76"/><line class="cls-2" x1="308.89" y1="1.76" x2="136.25" y2="451.49"/><line class="cls-2" x1="285.12" y1="-6.66" x2="136.25" y2="451.49"/><line class="cls-2" x1="260.93" y1="-13.83" x2="136.25" y2="451.49"/><line class="cls-2" x1="236.41" y1="-19.71" x2="136.25" y2="451.49"/><line class="cls-2" x1="211.61" y1="-24.31" x2="136.25" y2="451.49"/><line class="cls-2" x1="186.61" y1="-27.6" x2="136.25" y2="451.49"/><line class="cls-2" x1="161.47" y1="-29.58" x2="136.25" y2="451.49"/></g></g><g><path class="cls-4" d="M3.25,4.58c0,.52-.1,.91-.29,1.14-.18,.21-.47,.31-.89,.31-.29,0-.54-.05-.75-.14-.21-.09-.38-.2-.49-.31l-.83-.86v1.73l.16,.15c.23,.2,.51,.36,.84,.47,.32,.11,.68,.17,1.07,.17,.79,0,1.4-.24,1.81-.72,.39-.45,.59-1.11,.59-1.94V.07h-1.22V4.58Z"/><path class="cls-4" d="M17.8,7.17h6.75v-1.22h-5.54c0-.45,0-1.02,0-1.7h4.92v-1.2h-4.92V1.27l5.54,.02V.09l-6.75-.02V7.17Z"/><path class="cls-4" d="M43.67,4.37s-.03-.02-.05-.03c.29-.1,.57-.25,.82-.43,.47-.35,.71-.89,.71-1.59,0-.79-.32-1.4-.94-1.77-.55-.33-1.32-.49-2.34-.49h-3.99V7.17h1.22v-2.49s1.2,0,1.2,0c.69,0,1.3,.08,1.79,.22,.46,.14,.86,.37,1.19,.68,.34,.32,.63,.76,.87,1.3l.13,.29h1.39l-.31-.68c-.44-.98-1.01-1.69-1.69-2.12Zm-4.58-3.08h2.78c.76,0,1.32,.1,1.67,.29,.18,.1,.38,.27,.38,.75,0,.32-.07,.54-.23,.68-.19,.17-.48,.29-.88,.36-.46,.08-1.1,.12-1.89,.12h-1.82V1.29Z"/><path class="cls-4" d="M59.01,7.17h6.76v-1.22h-5.54c0-.45,0-1.02,0-1.7h4.92v-1.2h-4.92V1.27l5.54,.02V.09l-6.76-.02V7.17Z"/><path class="cls-4" d="M87.51,.07h-.99l-.14,.24c-.38,.67-.95,1.68-1.73,3.1l-1.23,2.19-1.25-2.26c-.73-1.34-1.29-2.35-1.67-3.02l-.14-.25h-1.27V7.17h1.22v-.48c0-.99,0-2.39,.01-4.2l.87,1.56c.8,1.46,1.33,2.41,1.59,2.88l.14,.25h.99l.14-.25c.72-1.27,1.26-2.23,1.62-2.87,.33-.6,.63-1.13,.89-1.6v2.18c.01,.47,.02,1.15,.02,2.06v.48h1.22l-.03-7.1h-.25Z"/><polygon class="cls-4" points="105.59 3.22 102.76 .07 101.12 .07 104.96 4.33 104.96 7.17 106.2 7.17 106.2 4.33 110.03 .07 108.39 .07 105.59 3.22"/><path class="cls-4" d="M135.16,7.17h1.22v-.49c-.01-.53-.01-1.34-.01-2.42h4.89v-1.22h-4.89V1.29h5.6V.07h-6.81V7.17Z"/><path class="cls-4" d="M162.05,.41c-1.3-.54-3.33-.54-4.62,0-.68,.28-1.21,.7-1.57,1.25-.37,.55-.55,1.21-.55,1.98s.19,1.4,.56,1.95c.37,.54,.9,.96,1.57,1.25,.65,.27,1.42,.41,2.31,.41s1.66-.14,2.31-.41c.68-.28,1.21-.7,1.57-1.25,.37-.55,.55-1.2,.55-1.94s-.19-1.42-.55-1.97c-.36-.55-.89-.97-1.57-1.26Zm-2.31,.79c.68,0,1.28,.1,1.76,.31,.47,.2,.82,.47,1.06,.84,.25,.36,.36,.79,.36,1.29s-.12,.94-.36,1.29c-.25,.36-.59,.62-1.06,.81-.99,.4-2.59,.39-3.57,0-.46-.19-.81-.45-1.05-.81-.24-.35-.36-.78-.36-1.3s.12-.93,.36-1.29c.25-.36,.59-.64,1.06-.83,.49-.21,1.09-.31,1.78-.31Z"/><path class="cls-4" d="M183.29,4.37s-.03-.02-.05-.03c.29-.1,.57-.25,.81-.43,.47-.35,.71-.89,.71-1.59,0-.79-.32-1.4-.94-1.77-.55-.33-1.32-.49-2.34-.49h-3.99V7.17h1.22v-2.49s1.2,0,1.2,0c.7,0,1.3,.08,1.79,.22,.46,.14,.86,.37,1.19,.68,.33,.32,.63,.76,.87,1.3l.13,.29h1.39l-.31-.68c-.44-.98-1.01-1.69-1.69-2.12Zm-4.58-3.08h2.78c.76,0,1.32,.1,1.67,.29,.18,.1,.38,.27,.38,.75,0,.32-.07,.54-.23,.68-.19,.17-.48,.29-.88,.36-.46,.08-1.1,.12-1.89,.12h-1.82V1.29Z"/><path class="cls-4" d="M217.64,2.44c.55-.48,.98-1.02,1.28-1.62l.35-.7h-1.35l-.14,.24c-.42,.74-1.09,1.38-1.97,1.9-.79,.47-1.87,.72-3.22,.74V1.37c0-.2,0-.47,0-.82V.07h-1.2V7.17h1.22v-.49c0-.81-.01-1.64-.01-2.5,1.01,.02,1.88,.18,2.58,.47,.75,.31,1.32,.68,1.7,1.08,.37,.4,.61,.77,.7,1.08l.1,.35h1.3l-.19-.62c-.19-.62-.55-1.19-1.09-1.7-.52-.5-1.16-.9-1.91-1.2-.04-.02-.07-.03-.11-.04h.03c.72-.3,1.37-.68,1.91-1.16Z"/><rect class="cls-4" x="232.61" y=".07" width="1.22" height="7.1"/><path class="cls-4" d="M255.11,.07h-1.22l.02,5.32-3.41-3.19c-.61-.57-1.32-1.24-2.13-2l-.14-.13h-1.06V7.17h1.22V1.87l3.87,3.63c.47,.44,1.02,.95,1.65,1.54l.14,.13h1.08l-.02-7.1Z"/><path class="cls-4" d="M271.51,3.21v1.2h4.38c-.13,.46-.38,.81-.77,1.06-.57,.37-1.34,.56-2.28,.56-.68,0-1.26-.11-1.74-.32-.46-.21-.8-.48-1.04-.85-.24-.37-.36-.79-.36-1.29s.12-.9,.36-1.24c.24-.35,.61-.62,1.09-.81,.83-.33,1.94-.42,3.44-.15,.56,.1,1.12,.28,1.67,.53l.68,.31V.84l-.3-.12c-.63-.26-1.28-.45-1.91-.55-2.23-.37-3.93-.09-5.02,.73-.83,.62-1.25,1.53-1.25,2.68,0,.75,.18,1.41,.52,1.96,.35,.56,.87,.99,1.54,1.28,.64,.28,1.42,.42,2.33,.42,1.19,0,2.19-.26,2.97-.76,.83-.54,1.31-1.38,1.41-2.56v-.71h-5.71Z"/></g></svg>