<?xml version="1.0" encoding="utf-8"?>
<!-- Generator: Adobe Illustrator 27.0.1, SVG Export Plug-In . SVG Version: 6.00 Build 0)  -->
<svg version="1.1" id="Layer_1" xmlns="http://www.w3.org/2000/svg" xmlns:xlink="http://www.w3.org/1999/xlink" x="0px" y="0px"
	 viewBox="0 0 37 10.7" style="enable-background:new 0 0 37 10.7;" xml:space="preserve">
<style type="text/css">
	.st0{fill:#C48A3D;}
</style>
<g>
	<path class="st0" d="M7.5,0.8l0.9,2.5h25.2l2.6,1.9l-2.6,2.1H8.5L7.5,9.9L6.2,6.2H0.8V4.4h5.4L7.5,0.8 M7.5,0L7.5,0
		C7.2,0,6.9,0.2,6.8,0.5L5.7,3.7H0.8C0.3,3.7,0,4,0,4.4v1.8C0,6.6,0.3,7,0.8,7h4.9l1.1,3.2c0.1,0.3,0.4,0.5,0.7,0.5s0.6-0.2,0.7-0.5
		l0.7-2h24.6c0.2,0,0.3-0.1,0.5-0.2l2.6-2.1C36.9,5.7,37,5.5,37,5.2c0-0.2-0.1-0.5-0.3-0.6l-2.6-1.9c-0.1-0.1-0.3-0.1-0.5-0.1H9
		l-0.7-2C8.2,0.2,7.9,0,7.5,0L7.5,0z"/>
</g>
</svg>
